<?xml version="1.0" encoding="UTF-8"?>
<svg id="Layer_2" data-name="Layer 2" xmlns="http://www.w3.org/2000/svg" viewBox="0 0 165.83 72.01">
  <defs>
    <style>
      .cls-1 {
        fill: #fff;
      }
    </style>
  </defs>
  <g id="Layer_1-2" data-name="Layer 1">
    <g>
      <path class="cls-1" d="m147.55,71.59c-2.15,1-4.69.15-5.83-1.88l-.19-.39-21.52-46.17-5.21-11.17h0s-.02-.06-.02-.06l-.02-.04-.32-.66-.02-.04h0c-.71-1.2-1.96-2.04-3.4-2.19-.15-.01-.31-.02-.46-.02-.16,0-.31.01-.46.02-1.43.15-2.67.97-3.38,2.14v.03s-.41.84-.41.84v.02s-.03.05-.03.05l-.02.07-5.14,11.01-21.54,46.19-.02.04-.04.09c-1.07,2.21-3.72,3.16-5.95,2.12-2.25-1.05-3.23-3.73-2.18-5.98l26.72-57.31.02-.05.02-.05.02-.05.3-.63.04-.08.03-.06.02-.04.09-.18c.47-.89,1.04-1.72,1.71-2.49,1.2-1.4,2.72-2.57,4.5-3.4.67-.31,1.35-.57,2.05-.76.77-.22,1.56-.37,2.34-.44.89-.09,1.77-.09,2.63,0,.79.07,1.57.22,2.33.44,2.51.7,4.81,2.13,6.56,4.16.67.76,1.25,1.61,1.73,2.54l.02.03c.1.18.19.37.28.56.11.23.21.46.3.7l26.63,57.11c1.05,2.25.08,4.93-2.18,5.98Z"/>
      <path class="cls-1" d="m165.83,4.51v63c0,2.49-2.01,4.5-4.5,4.5s-4.5-2.01-4.5-4.5V4.51C156.83,2.02,158.85,0,161.33,0s4.5,2.01,4.5,4.5Z"/>
      <path class="cls-1" d="m63.8,4.51v63c0,2.49-2.01,4.5-4.5,4.5-1.39,0-2.64-.64-3.47-1.64l-1.03-1.18L9,16.53v50.98c0,2.49-2.02,4.5-4.5,4.5s-4.5-2.01-4.5-4.5V4.51C0,2.02,2.01,0,4.5,0,5.74,0,6.87.51,7.68,1.33l.34.39.98,1.12,45.8,52.66V4.51C54.8,2.02,56.82,0,59.3,0s4.5,2.01,4.5,4.5Z"/>
      <path class="cls-1" d="m97.74,44.04l8.69-3.16,3.16-8.69c.07-.2.2-.37.38-.49.17-.12.38-.19.59-.19s.42.07.59.19c.17.12.31.29.38.49l3.16,8.69,8.69,3.16c.2.07.37.2.49.38.12.17.19.38.19.59s-.07.42-.19.59c-.12.17-.29.31-.49.38l-8.69,3.16-3.16,8.69c-.07.2-.2.37-.38.49-.17.12-.38.19-.59.19s-.42-.07-.59-.19c-.17-.12-.31-.29-.38-.49l-3.16-8.69-8.69-3.16c-.2-.07-.37-.2-.49-.38-.12-.17-.19-.38-.19-.59s.07-.42.19-.59.29-.31.49-.38Z"/>
    </g>
  </g>
</svg>